<svg width="28" height="28" viewBox="0 0 28 28" fill="none" xmlns="http://www.w3.org/2000/svg">
<path d="M23.3337 11.6663C23.3337 17.4915 16.8715 23.5582 14.7015 25.4318C14.4993 25.5839 14.2533 25.666 14.0003 25.666C13.7474 25.666 13.5013 25.5839 13.2992 25.4318C11.1292 23.5582 4.66699 17.4915 4.66699 11.6663C4.66699 9.19099 5.65032 6.81702 7.40066 5.06668C9.151 3.31634 11.525 2.33301 14.0003 2.33301C16.4757 2.33301 18.8497 3.31634 20.6 5.06668C22.3503 6.81702 23.3337 9.19099 23.3337 11.6663Z" stroke="white" stroke-width="2.66667" stroke-linecap="round" stroke-linejoin="round"/>
<path d="M14 15.167C15.933 15.167 17.5 13.6 17.5 11.667C17.5 9.734 15.933 8.16699 14 8.16699C12.067 8.16699 10.5 9.734 10.5 11.667C10.5 13.6 12.067 15.167 14 15.167Z" stroke="white" stroke-width="2.66667" stroke-linecap="round" stroke-linejoin="round"/>
</svg>
