<svg width="26" height="26" viewBox="0 0 26 26" fill="none" xmlns="http://www.w3.org/2000/svg">
<path d="M24.6667 18.7398V22.2398C24.668 22.5647 24.6014 22.8863 24.4713 23.184C24.3411 23.4817 24.1502 23.749 23.9108 23.9686C23.6713 24.1883 23.3887 24.3555 23.0809 24.4596C22.7731 24.5637 22.4469 24.6024 22.1233 24.5731C18.5333 24.183 15.0848 22.9563 12.055 20.9915C9.23614 19.2002 6.84623 16.8103 5.055 13.9915C3.08331 10.9479 1.85629 7.48261 1.47334 3.87645C1.44418 3.55383 1.48252 3.22867 1.58592 2.92168C1.68932 2.61469 1.8555 2.33259 2.0739 2.09335C2.29229 1.8541 2.55811 1.66295 2.85443 1.53206C3.15074 1.40118 3.47107 1.33343 3.795 1.33312H7.295C7.86119 1.32755 8.41009 1.52805 8.83939 1.89724C9.26869 2.26644 9.54909 2.77914 9.62834 3.33979C9.77606 4.45986 10.05 5.55964 10.445 6.61812C10.602 7.0357 10.6359 7.48952 10.5429 7.92581C10.4498 8.36211 10.2337 8.76258 9.92 9.07979L8.43834 10.5615C10.0992 13.4823 12.5175 15.9006 15.4383 17.5615L16.92 16.0798C17.2372 15.7661 17.6377 15.5499 18.074 15.4569C18.5103 15.3638 18.9641 15.3978 19.3817 15.5548C20.4402 15.9498 21.5399 16.2237 22.66 16.3715C23.2267 16.4514 23.7443 16.7369 24.1143 17.1735C24.4843 17.6102 24.6809 18.1676 24.6667 18.7398Z" stroke="white" stroke-width="2.66667" stroke-linecap="round" stroke-linejoin="round"/>
</svg>
