<svg width="60" height="60" viewBox="0 0 60 60" fill="none" xmlns="http://www.w3.org/2000/svg">
<path d="M22.5 7.5H12.5C9.73858 7.5 7.5 9.73858 7.5 12.5V22.5C7.5 25.2614 9.73858 27.5 12.5 27.5H22.5C25.2614 27.5 27.5 25.2614 27.5 22.5V12.5C27.5 9.73858 25.2614 7.5 22.5 7.5Z" stroke="#FD0002" stroke-width="4" stroke-linecap="round" stroke-linejoin="round"/>
<path d="M17.5 27.5V37.5C17.5 38.8261 18.0268 40.0979 18.9645 41.0355C19.9021 41.9732 21.1739 42.5 22.5 42.5H32.5" stroke="#FD0002" stroke-width="4" stroke-linecap="round" stroke-linejoin="round"/>
<path d="M47.5 32.5H37.5C34.7386 32.5 32.5 34.7386 32.5 37.5V47.5C32.5 50.2614 34.7386 52.5 37.5 52.5H47.5C50.2614 52.5 52.5 50.2614 52.5 47.5V37.5C52.5 34.7386 50.2614 32.5 47.5 32.5Z" stroke="#FD0002" stroke-width="4" stroke-linecap="round" stroke-linejoin="round"/>
</svg>
