<svg width="34" height="26" viewBox="0 0 34 26" fill="none" xmlns="http://www.w3.org/2000/svg">
<path d="M33.3342 1.16748C33.5453 1.37853 33.7127 1.62925 33.8269 1.90527C33.9412 2.1813 34 2.47721 34 2.77605C34 3.0749 33.9412 3.37081 33.8269 3.64683C33.7127 3.92285 33.5453 4.17357 33.3342 4.38462L12.9384 24.8325C12.7279 25.0441 12.4778 25.212 12.2025 25.3265C11.9271 25.441 11.632 25.5 11.3339 25.5C11.0358 25.5 10.7407 25.441 10.4653 25.3265C10.19 25.212 9.93993 25.0441 9.72942 24.8325L0.664594 15.7446C0.239061 15.3179 0 14.7393 0 14.136C0 13.5327 0.239061 12.954 0.664594 12.5274C1.09013 12.1008 1.66727 11.8611 2.26907 11.8611C2.87086 11.8611 3.44801 12.1008 3.87354 12.5274L11.3339 20.0114L30.1253 1.16748C30.3358 0.9559 30.5859 0.788033 30.8612 0.673495C31.1365 0.558957 31.4317 0.5 31.7297 0.5C32.0278 0.5 32.323 0.558957 32.5983 0.673495C32.8736 0.788033 33.1237 0.9559 33.3342 1.16748Z" fill="white"/>
</svg>
