<svg width="30" height="30" viewBox="0 0 30 30" fill="none" xmlns="http://www.w3.org/2000/svg">
<path d="M22.8748 7.13747C22.7591 7.02159 22.6218 6.92966 22.4706 6.86693C22.3194 6.80421 22.1572 6.77192 21.9935 6.77192C21.8298 6.77192 21.6677 6.80421 21.5165 6.86693C21.3653 6.92966 21.2279 7.02159 21.1123 7.13747L14.9998 13.2375L8.88729 7.12497C8.77156 7.00925 8.63418 6.91745 8.48297 6.85482C8.33177 6.79218 8.1697 6.75995 8.00604 6.75995C7.84238 6.75995 7.68032 6.79218 7.52911 6.85482C7.37791 6.91745 7.24052 7.00925 7.12479 7.12497C7.00906 7.2407 6.91726 7.37809 6.85463 7.5293C6.792 7.6805 6.75977 7.84256 6.75977 8.00622C6.75977 8.16989 6.792 8.33195 6.85463 8.48315C6.91726 8.63436 7.00906 8.77175 7.12479 8.88747L13.2373 15L7.12479 21.1125C7.00906 21.2282 6.91726 21.3656 6.85463 21.5168C6.792 21.668 6.75977 21.8301 6.75977 21.9937C6.75977 22.1574 6.792 22.3194 6.85463 22.4707C6.91726 22.6219 7.00906 22.7592 7.12479 22.875C7.24052 22.9907 7.37791 23.0825 7.52911 23.1451C7.68032 23.2078 7.84238 23.24 8.00604 23.24C8.1697 23.24 8.33177 23.2078 8.48297 23.1451C8.63418 23.0825 8.77156 22.9907 8.88729 22.875L14.9998 16.7625L21.1123 22.875C21.228 22.9907 21.3654 23.0825 21.5166 23.1451C21.6678 23.2078 21.8299 23.24 21.9935 23.24C22.1572 23.24 22.3193 23.2078 22.4705 23.1451C22.6217 23.0825 22.7591 22.9907 22.8748 22.875C22.9905 22.7592 23.0823 22.6219 23.1449 22.4707C23.2076 22.3194 23.2398 22.1574 23.2398 21.9937C23.2398 21.8301 23.2076 21.668 23.1449 21.5168C23.0823 21.3656 22.9905 21.2282 22.8748 21.1125L16.7623 15L22.8748 8.88747C23.3498 8.41247 23.3498 7.61247 22.8748 7.13747Z" fill="#A6A6A6"/>
</svg>
