<svg width="90" height="90" viewBox="0 0 90 90" fill="none" xmlns="http://www.w3.org/2000/svg">
<path d="M45 63.75V78.75" stroke="#FD0002" stroke-width="4" stroke-linecap="round" stroke-linejoin="round"/>
<path d="M30 78.75H60" stroke="#FD0002" stroke-width="4" stroke-linecap="round" stroke-linejoin="round"/>
<path d="M75 11.25H15C10.8579 11.25 7.5 14.6079 7.5 18.75V56.25C7.5 60.3921 10.8579 63.75 15 63.75H75C79.1421 63.75 82.5 60.3921 82.5 56.25V18.75C82.5 14.6079 79.1421 11.25 75 11.25Z" stroke="#FD0002" stroke-width="4" stroke-linecap="round" stroke-linejoin="round"/>
<path d="M52.5 26.25H37.5C35.4289 26.25 33.75 27.9289 33.75 30V45C33.75 47.0711 35.4289 48.75 37.5 48.75H52.5C54.5711 48.75 56.25 47.0711 56.25 45V30C56.25 27.9289 54.5711 26.25 52.5 26.25Z" stroke="#FD0002" stroke-width="4" stroke-linecap="round" stroke-linejoin="round"/>
</svg>
