<svg width="60" height="60" viewBox="0 0 60 60" fill="none" xmlns="http://www.w3.org/2000/svg">
<path d="M31.875 5.625C31.875 5.12772 31.6775 4.65081 31.3258 4.29917C30.9742 3.94754 30.4973 3.75 30 3.75C29.5027 3.75 29.0258 3.94754 28.6742 4.29917C28.3225 4.65081 28.125 5.12772 28.125 5.625V7.5H19.2188C17.6026 7.5 16.0526 8.14202 14.9098 9.28482C13.767 10.4276 13.125 11.9776 13.125 13.5938V23.9062C13.125 25.5224 13.767 27.0724 14.9098 28.2152C16.0526 29.358 17.6026 30 19.2188 30H40.7812C42.3974 30 43.9474 29.358 45.0902 28.2152C46.233 27.0724 46.875 25.5224 46.875 23.9062V13.5938C46.875 11.9776 46.233 10.4276 45.0902 9.28482C43.9474 8.14202 42.3974 7.5 40.7812 7.5H31.875V5.625ZM16.875 13.5938C16.875 12.3 17.925 11.25 19.2188 11.25H40.7812C42.075 11.25 43.125 12.3 43.125 13.5938V23.9062C43.125 25.2 42.075 26.25 40.7812 26.25H19.2188C17.925 26.25 16.875 25.2 16.875 23.9062V13.5938ZM13.125 41.7188C13.125 40.425 14.175 39.375 15.4688 39.375H44.5312C45.825 39.375 46.875 40.425 46.875 41.7188V42.5625C46.875 45.2438 45.6 47.6381 42.8963 49.44C40.1363 51.2775 35.8519 52.5 30 52.5C24.1481 52.5 19.8637 51.2775 17.1037 49.44C14.4 47.64 13.125 45.2438 13.125 42.5625V41.7188ZM15.4688 35.625C13.8526 35.625 12.3026 36.267 11.1598 37.4098C10.017 38.5526 9.375 40.1026 9.375 41.7188V42.5625C9.375 46.6313 11.3944 50.1431 15.0244 52.56C18.6 54.9412 23.6888 56.25 30 56.25C36.3112 56.25 41.4 54.9412 44.9756 52.56C48.6056 50.1412 50.625 46.6331 50.625 42.5625V41.7188C50.625 40.1026 49.983 38.5526 48.8402 37.4098C47.6974 36.267 46.1474 35.625 44.5312 35.625H15.4688ZM26.7188 18.75C26.7188 19.6202 26.373 20.4548 25.7577 21.0702C25.1423 21.6855 24.3077 22.0312 23.4375 22.0312C22.5673 22.0312 21.7327 21.6855 21.1173 21.0702C20.502 20.4548 20.1562 19.6202 20.1562 18.75C20.1562 17.8798 20.502 17.0452 21.1173 16.4298C21.7327 15.8145 22.5673 15.4688 23.4375 15.4688C24.3077 15.4688 25.1423 15.8145 25.7577 16.4298C26.373 17.0452 26.7188 17.8798 26.7188 18.75ZM36.5625 22.0312C36.9934 22.0313 37.4201 21.9464 37.8182 21.7815C38.2163 21.6166 38.578 21.3749 38.8827 21.0702C39.1874 20.7655 39.4291 20.4038 39.594 20.0057C39.7589 19.6076 39.8438 19.1809 39.8438 18.75C39.8438 18.3191 39.7589 17.8924 39.594 17.4943C39.4291 17.0962 39.1874 16.7345 38.8827 16.4298C38.578 16.1251 38.2163 15.8834 37.8182 15.7185C37.4201 15.5536 36.9934 15.4687 36.5625 15.4688C35.6923 15.4688 34.8577 15.8145 34.2423 16.4298C33.627 17.0452 33.2812 17.8798 33.2812 18.75C33.2812 19.6202 33.627 20.4548 34.2423 21.0702C34.8577 21.6855 35.6923 22.0312 36.5625 22.0312Z" fill="#FD0002"/>
</svg>
