<svg width="60" height="60" viewBox="0 0 60 60" fill="none" xmlns="http://www.w3.org/2000/svg">
<g clip-path="url(#clip0_184_982)">
<path d="M51.4101 36.9999C49.8934 41.6822 46.8832 45.7379 42.8408 48.5457C38.7985 51.3534 33.947 52.7582 29.0299 52.5449C24.1127 52.3315 19.4011 50.5118 15.6172 47.3645C11.8332 44.2172 9.18563 39.9159 8.08012 35.1199L12.3351 34.2799L4.23512 25.8999L-0.00488281 36.7349L4.48012 35.8549C5.7318 41.4849 8.8028 46.546 13.2186 50.256C17.6343 53.966 23.1491 56.1185 28.9105 56.3808C34.672 56.6432 40.3595 55.0007 45.0941 51.7073C49.8288 48.4139 53.347 43.6529 55.1051 38.1599L51.4101 36.9999ZM55.5901 24.2999C54.3378 18.6702 51.2663 13.6095 46.8502 9.89999C42.4341 6.19047 36.9192 4.03857 31.1578 3.77682C25.3964 3.51506 19.7091 5.15803 14.9748 8.45182C10.2405 11.7456 6.72276 16.5069 4.96512 21.9999L8.53012 23.1599C10.0464 18.4776 13.0561 14.4216 17.0981 11.6135C21.1401 8.80533 25.9913 7.39997 30.9085 7.61275C35.8256 7.82552 40.5373 9.64469 44.3216 12.7915C48.1059 15.9383 50.754 20.2391 51.8601 25.0349L47.6051 25.8799L55.7051 34.2399L59.9951 23.4199L55.5901 24.2999Z" fill="#FD0002"/>
<path d="M45.2096 40.6599C45.3836 40.8372 45.5209 41.047 45.6139 41.2774C45.7068 41.5078 45.7534 41.7542 45.7511 42.0026C45.7488 42.251 45.6975 42.4965 45.6003 42.7251C45.5031 42.9537 45.3618 43.1609 45.1846 43.3349C45.0073 43.5089 44.7975 43.6463 44.5671 43.7392C44.3367 43.8321 44.0903 43.8787 43.8419 43.8764C43.5935 43.8741 43.348 43.8229 43.1194 43.7257C42.8908 43.6285 42.6836 43.4872 42.5096 43.3099L35.7346 36.4099C35.3894 36.0552 35.1963 35.5798 35.1963 35.0849C35.1963 34.59 35.3894 34.1146 35.7346 33.7599C37.0547 32.4177 37.8695 30.6598 38.0405 28.7849C38.2114 26.91 37.728 25.0337 36.6723 23.4749C35.6166 21.9161 34.0538 20.7708 32.2494 20.2336C30.445 19.6965 28.5102 19.8006 26.7739 20.5283C25.0376 21.2561 23.6067 22.5625 22.7244 24.2256C21.8422 25.8887 21.5629 27.806 21.9341 29.6518C22.3053 31.4975 23.304 33.1578 24.7606 34.3505C26.2173 35.5433 28.0419 36.195 29.9246 36.1949C30.4265 36.1949 30.9079 36.3943 31.2628 36.7492C31.6177 37.1041 31.8171 37.5855 31.8171 38.0874C31.8171 38.5893 31.6177 39.0707 31.2628 39.4256C30.9079 39.7805 30.4265 39.9799 29.9246 39.9799C27.2504 39.9787 24.6543 39.0787 22.5531 37.4245C20.452 35.7703 18.9679 33.4578 18.3392 30.8586C17.7104 28.2594 17.9736 25.5243 19.0864 23.0927C20.1991 20.661 22.0969 18.674 24.4749 17.4507C26.8529 16.2274 29.573 15.8389 32.1983 16.3476C34.8237 16.8563 37.2018 18.2327 38.9508 20.2556C40.6998 22.2785 41.7181 24.8306 41.8421 27.5019C41.9661 30.1732 41.1886 32.8086 39.6346 34.9849L45.2096 40.6599Z" fill="#FD0002"/>
</g>
<defs>
<clipPath id="clip0_184_982">
<rect width="60" height="60" fill="white"/>
</clipPath>
</defs>
</svg>
