<svg width="60" height="60" viewBox="0 0 60 60" fill="none" xmlns="http://www.w3.org/2000/svg">
<path fill-rule="evenodd" clip-rule="evenodd" d="M19.2002 14.6459V27.9539L42.0002 34.1729V8.42688L19.2002 14.6459ZM16.2002 27.9539C16.2001 28.6122 16.4164 29.2522 16.816 29.7754C17.2156 30.2985 17.7761 30.6758 18.4112 30.8489L41.2112 37.0679C41.6565 37.1893 42.1238 37.2063 42.5768 37.1176C43.0298 37.0289 43.4561 36.8368 43.8228 36.5564C44.1894 36.276 44.4864 35.9148 44.6906 35.5008C44.8948 35.0869 45.0008 34.6314 45.0002 34.1699V8.42688C45.0003 7.96557 44.894 7.51045 44.6896 7.0969C44.4852 6.68335 44.1881 6.32252 43.8216 6.04245C43.455 5.76237 43.0288 5.57061 42.5761 5.48206C42.1233 5.39351 41.6563 5.41056 41.2112 5.53188L18.4112 11.7509C17.7761 11.924 17.2156 12.3012 16.816 12.8244C16.4164 13.3475 16.2001 13.9876 16.2002 14.6459V27.9539Z" fill="#FD0002"/>
<path fill-rule="evenodd" clip-rule="evenodd" d="M10.3678 27.9H16.4998V14.7H10.3588C8.80694 16.5496 7.95708 18.8872 7.95872 21.3016C7.96037 23.716 8.81342 26.0525 10.3678 27.9ZM16.4998 30.9C17.2955 30.9 18.0585 30.5839 18.6211 30.0213C19.1837 29.4587 19.4998 28.6956 19.4998 27.9V14.7C19.4998 13.9043 19.1837 13.1412 18.6211 12.5786C18.0585 12.016 17.2955 11.7 16.4998 11.7H9.7588C9.53419 11.6998 9.31191 11.7454 9.10557 11.8341C8.89923 11.9229 8.71317 12.0528 8.5588 12.216C3.7528 17.289 3.7738 25.2749 8.5528 30.3719C8.70896 30.5377 8.89719 30.67 9.10606 30.7608C9.31493 30.8515 9.54007 30.8989 9.7678 30.9H16.4998Z" fill="#FD0002"/>
<path fill-rule="evenodd" clip-rule="evenodd" d="M21.8067 32.6098L14.2767 31.7698L11.3427 43.4998H19.2507L21.8067 32.6098ZM14.6067 28.7908C13.8854 28.7102 13.1594 28.8937 12.5631 29.3074C11.9667 29.7211 11.5406 30.337 11.3637 31.0408L8.43269 42.7708C8.32188 43.2132 8.31337 43.675 8.40781 44.1211C8.50224 44.5672 8.69714 44.986 8.97769 45.3455C9.25824 45.705 9.61705 45.9958 10.0269 46.1958C10.4367 46.3959 10.8867 46.4998 11.3427 46.4998H19.2507C19.9276 46.5001 20.5847 46.2714 21.1152 45.8509C21.6457 45.4304 22.0184 44.8429 22.1727 44.1838L24.7287 33.2938C24.8259 32.8805 24.8343 32.4512 24.7533 32.0344C24.6723 31.6175 24.5037 31.2227 24.2587 30.8758C24.0136 30.529 23.6978 30.2382 23.332 30.0225C22.9662 29.8068 22.5588 29.6713 22.1367 29.6248L14.6067 28.7908ZM55.8477 9.66884C56.0679 9.99989 56.1477 10.4048 56.0695 10.7947C55.9913 11.1845 55.7615 11.5273 55.4307 11.7478L50.9307 14.7478C50.767 14.8639 50.5817 14.946 50.3857 14.9891C50.1897 15.0323 49.987 15.0357 49.7897 14.9991C49.5924 14.9625 49.4044 14.8867 49.2369 14.7762C49.0694 14.6656 48.9258 14.5226 48.8145 14.3556C48.7033 14.1885 48.6267 14.0009 48.5893 13.8037C48.552 13.6065 48.5545 13.4039 48.5969 13.2077C48.6392 13.0115 48.7205 12.8259 48.8359 12.6617C48.9513 12.4975 49.0985 12.3581 49.2687 12.2518L53.7687 9.25184C54.0997 9.03162 54.5047 8.95184 54.8945 9.03003C55.2843 9.10822 55.6272 9.33799 55.8477 9.66884ZM48.5997 21.2998C48.5997 20.902 48.7577 20.5205 49.039 20.2392C49.3203 19.9579 49.7019 19.7998 50.0997 19.7998H54.5997C54.9975 19.7998 55.379 19.9579 55.6604 20.2392C55.9417 20.5205 56.0997 20.902 56.0997 21.2998C56.0997 21.6977 55.9417 22.0792 55.6604 22.3605C55.379 22.6418 54.9975 22.7998 54.5997 22.7998H50.0997C49.7019 22.7998 49.3203 22.6418 49.039 22.3605C48.7577 22.0792 48.5997 21.6977 48.5997 21.2998ZM48.9507 27.9898C49.0777 27.839 49.2331 27.7148 49.4082 27.6241C49.5832 27.5334 49.7745 27.4781 49.9709 27.4614C50.1673 27.4447 50.3651 27.4669 50.553 27.5267C50.7408 27.5864 50.9151 27.6827 51.0657 27.8098L55.2057 31.2868C55.4937 31.5474 55.6694 31.9095 55.6959 32.2969C55.7224 32.6844 55.5975 33.067 55.3476 33.3643C55.0978 33.6616 54.7423 33.8504 54.3561 33.891C53.9698 33.9316 53.5829 33.8207 53.2767 33.5818L49.1367 30.1018C48.8321 29.8463 48.6415 29.4803 48.6066 29.0843C48.5717 28.6883 48.6955 28.2947 48.9507 27.9898Z" fill="#FD0002"/>
</svg>
