<svg width="48" height="48" viewBox="0 0 48 48" fill="none" xmlns="http://www.w3.org/2000/svg">
<path fill-rule="evenodd" clip-rule="evenodd" d="M39.5538 8.85993C40.048 8.65191 40.589 8.58017 41.1204 8.65216C41.6517 8.72416 42.1541 8.93727 42.5752 9.2693C42.9962 9.60133 43.3206 10.0402 43.5145 10.5401C43.7085 11.04 43.7648 11.5828 43.6778 12.1119L39.1418 39.6259C38.7018 42.2799 35.7898 43.8019 33.3558 42.4799C31.3198 41.3739 28.2958 39.6699 25.5758 37.8919C24.2158 37.0019 20.0498 34.1519 20.5618 32.1239C21.0018 30.3899 28.0018 23.8739 32.0018 19.9999C33.5718 18.4779 32.8558 17.5999 31.0018 18.9999C26.3978 22.4759 19.0058 27.7619 16.5618 29.2499C14.4058 30.5619 13.2818 30.7859 11.9378 30.5619C9.4858 30.1539 7.2118 29.5219 5.3558 28.7519C2.8478 27.7119 2.9698 24.2639 5.3538 23.2599L39.5538 8.85993Z" fill="white"/>
</svg>
