<svg width="60" height="60" viewBox="0 0 60 60" fill="none" xmlns="http://www.w3.org/2000/svg">
<path d="M11.5387 47.5C10.3879 47.5 9.42708 47.1146 8.65625 46.3437C7.88542 45.5729 7.5 44.6121 7.5 43.4612V16.5387C7.5 15.3879 7.88542 14.4271 8.65625 13.6562C9.42708 12.8854 10.3879 12.5 11.5387 12.5H48.4613C49.6121 12.5 50.5729 12.8854 51.3438 13.6562C52.1146 14.4271 52.5 15.3879 52.5 16.5387V43.4612C52.5 44.6121 52.1146 45.5729 51.3438 46.3437C50.5729 47.1146 49.6121 47.5 48.4613 47.5H11.5387ZM11.5387 45H48.4613C48.8462 45 49.199 44.8398 49.5194 44.5194C49.8398 44.199 50 43.8462 50 43.4612V20H10V43.4612C10 43.8462 10.1602 44.199 10.4806 44.5194C10.801 44.8398 11.1537 45 11.5387 45Z" fill="#FD0002"/>
</svg>
